%TF.GenerationSoftware,KiCad,Pcbnew,7.0.1*%
%TF.CreationDate,2023-03-30T07:30:20+02:00*%
%TF.ProjectId,board,626f6172-642e-46b6-9963-61645f706362,rev?*%
%TF.SameCoordinates,Original*%
%TF.FileFunction,Legend,Top*%
%TF.FilePolarity,Positive*%
%FSLAX46Y46*%
G04 Gerber Fmt 4.6, Leading zero omitted, Abs format (unit mm)*
G04 Created by KiCad (PCBNEW 7.0.1) date 2023-03-30 07:30:20*
%MOMM*%
%LPD*%
G01*
G04 APERTURE LIST*
%ADD10C,0.100000*%
%ADD11C,0.150000*%
%ADD12C,0.120000*%
%ADD13C,0.200000*%
%ADD14C,1.524000*%
G04 APERTURE END LIST*
D10*
X77214285Y-33977619D02*
X76738095Y-33977619D01*
X76738095Y-33977619D02*
X76738095Y-32977619D01*
X77500000Y-33691904D02*
X77976190Y-33691904D01*
X77404762Y-33977619D02*
X77738095Y-32977619D01*
X77738095Y-32977619D02*
X78071428Y-33977619D01*
X78404762Y-33977619D02*
X78404762Y-32977619D01*
X78404762Y-32977619D02*
X78738095Y-33691904D01*
X78738095Y-33691904D02*
X79071428Y-32977619D01*
X79071428Y-32977619D02*
X79071428Y-33977619D01*
X79547619Y-33977619D02*
X79547619Y-32977619D01*
X79547619Y-32977619D02*
X79928571Y-32977619D01*
X79928571Y-32977619D02*
X80023809Y-33025238D01*
X80023809Y-33025238D02*
X80071428Y-33072857D01*
X80071428Y-33072857D02*
X80119047Y-33168095D01*
X80119047Y-33168095D02*
X80119047Y-33310952D01*
X80119047Y-33310952D02*
X80071428Y-33406190D01*
X80071428Y-33406190D02*
X80023809Y-33453809D01*
X80023809Y-33453809D02*
X79928571Y-33501428D01*
X79928571Y-33501428D02*
X79547619Y-33501428D01*
X80309524Y-34072857D02*
X81071428Y-34072857D01*
X81166667Y-32977619D02*
X81500000Y-33977619D01*
X81500000Y-33977619D02*
X81833333Y-32977619D01*
X82690476Y-33977619D02*
X82119048Y-33977619D01*
X82404762Y-33977619D02*
X82404762Y-32977619D01*
X82404762Y-32977619D02*
X82309524Y-33120476D01*
X82309524Y-33120476D02*
X82214286Y-33215714D01*
X82214286Y-33215714D02*
X82119048Y-33263333D01*
X83119048Y-33882380D02*
X83166667Y-33930000D01*
X83166667Y-33930000D02*
X83119048Y-33977619D01*
X83119048Y-33977619D02*
X83071429Y-33930000D01*
X83071429Y-33930000D02*
X83119048Y-33882380D01*
X83119048Y-33882380D02*
X83119048Y-33977619D01*
X83785714Y-32977619D02*
X83880952Y-32977619D01*
X83880952Y-32977619D02*
X83976190Y-33025238D01*
X83976190Y-33025238D02*
X84023809Y-33072857D01*
X84023809Y-33072857D02*
X84071428Y-33168095D01*
X84071428Y-33168095D02*
X84119047Y-33358571D01*
X84119047Y-33358571D02*
X84119047Y-33596666D01*
X84119047Y-33596666D02*
X84071428Y-33787142D01*
X84071428Y-33787142D02*
X84023809Y-33882380D01*
X84023809Y-33882380D02*
X83976190Y-33930000D01*
X83976190Y-33930000D02*
X83880952Y-33977619D01*
X83880952Y-33977619D02*
X83785714Y-33977619D01*
X83785714Y-33977619D02*
X83690476Y-33930000D01*
X83690476Y-33930000D02*
X83642857Y-33882380D01*
X83642857Y-33882380D02*
X83595238Y-33787142D01*
X83595238Y-33787142D02*
X83547619Y-33596666D01*
X83547619Y-33596666D02*
X83547619Y-33358571D01*
X83547619Y-33358571D02*
X83595238Y-33168095D01*
X83595238Y-33168095D02*
X83642857Y-33072857D01*
X83642857Y-33072857D02*
X83690476Y-33025238D01*
X83690476Y-33025238D02*
X83785714Y-32977619D01*
D11*
%TO.C,Q3*%
X69104761Y-36157857D02*
X69009523Y-36110238D01*
X69009523Y-36110238D02*
X68914285Y-36015000D01*
X68914285Y-36015000D02*
X68771428Y-35872142D01*
X68771428Y-35872142D02*
X68676190Y-35824523D01*
X68676190Y-35824523D02*
X68580952Y-35824523D01*
X68628571Y-36062619D02*
X68533333Y-36015000D01*
X68533333Y-36015000D02*
X68438095Y-35919761D01*
X68438095Y-35919761D02*
X68390476Y-35729285D01*
X68390476Y-35729285D02*
X68390476Y-35395952D01*
X68390476Y-35395952D02*
X68438095Y-35205476D01*
X68438095Y-35205476D02*
X68533333Y-35110238D01*
X68533333Y-35110238D02*
X68628571Y-35062619D01*
X68628571Y-35062619D02*
X68819047Y-35062619D01*
X68819047Y-35062619D02*
X68914285Y-35110238D01*
X68914285Y-35110238D02*
X69009523Y-35205476D01*
X69009523Y-35205476D02*
X69057142Y-35395952D01*
X69057142Y-35395952D02*
X69057142Y-35729285D01*
X69057142Y-35729285D02*
X69009523Y-35919761D01*
X69009523Y-35919761D02*
X68914285Y-36015000D01*
X68914285Y-36015000D02*
X68819047Y-36062619D01*
X68819047Y-36062619D02*
X68628571Y-36062619D01*
X69390476Y-35062619D02*
X70009523Y-35062619D01*
X70009523Y-35062619D02*
X69676190Y-35443571D01*
X69676190Y-35443571D02*
X69819047Y-35443571D01*
X69819047Y-35443571D02*
X69914285Y-35491190D01*
X69914285Y-35491190D02*
X69961904Y-35538809D01*
X69961904Y-35538809D02*
X70009523Y-35634047D01*
X70009523Y-35634047D02*
X70009523Y-35872142D01*
X70009523Y-35872142D02*
X69961904Y-35967380D01*
X69961904Y-35967380D02*
X69914285Y-36015000D01*
X69914285Y-36015000D02*
X69819047Y-36062619D01*
X69819047Y-36062619D02*
X69533333Y-36062619D01*
X69533333Y-36062619D02*
X69438095Y-36015000D01*
X69438095Y-36015000D02*
X69390476Y-35967380D01*
%TO.C,Q2*%
X42957857Y-35325238D02*
X42910238Y-35420476D01*
X42910238Y-35420476D02*
X42815000Y-35515714D01*
X42815000Y-35515714D02*
X42672142Y-35658571D01*
X42672142Y-35658571D02*
X42624523Y-35753809D01*
X42624523Y-35753809D02*
X42624523Y-35849047D01*
X42862619Y-35801428D02*
X42815000Y-35896666D01*
X42815000Y-35896666D02*
X42719761Y-35991904D01*
X42719761Y-35991904D02*
X42529285Y-36039523D01*
X42529285Y-36039523D02*
X42195952Y-36039523D01*
X42195952Y-36039523D02*
X42005476Y-35991904D01*
X42005476Y-35991904D02*
X41910238Y-35896666D01*
X41910238Y-35896666D02*
X41862619Y-35801428D01*
X41862619Y-35801428D02*
X41862619Y-35610952D01*
X41862619Y-35610952D02*
X41910238Y-35515714D01*
X41910238Y-35515714D02*
X42005476Y-35420476D01*
X42005476Y-35420476D02*
X42195952Y-35372857D01*
X42195952Y-35372857D02*
X42529285Y-35372857D01*
X42529285Y-35372857D02*
X42719761Y-35420476D01*
X42719761Y-35420476D02*
X42815000Y-35515714D01*
X42815000Y-35515714D02*
X42862619Y-35610952D01*
X42862619Y-35610952D02*
X42862619Y-35801428D01*
X41957857Y-34991904D02*
X41910238Y-34944285D01*
X41910238Y-34944285D02*
X41862619Y-34849047D01*
X41862619Y-34849047D02*
X41862619Y-34610952D01*
X41862619Y-34610952D02*
X41910238Y-34515714D01*
X41910238Y-34515714D02*
X41957857Y-34468095D01*
X41957857Y-34468095D02*
X42053095Y-34420476D01*
X42053095Y-34420476D02*
X42148333Y-34420476D01*
X42148333Y-34420476D02*
X42291190Y-34468095D01*
X42291190Y-34468095D02*
X42862619Y-35039523D01*
X42862619Y-35039523D02*
X42862619Y-34420476D01*
%TO.C,D1*%
X34862619Y-70618094D02*
X33862619Y-70618094D01*
X33862619Y-70618094D02*
X33862619Y-70379999D01*
X33862619Y-70379999D02*
X33910238Y-70237142D01*
X33910238Y-70237142D02*
X34005476Y-70141904D01*
X34005476Y-70141904D02*
X34100714Y-70094285D01*
X34100714Y-70094285D02*
X34291190Y-70046666D01*
X34291190Y-70046666D02*
X34434047Y-70046666D01*
X34434047Y-70046666D02*
X34624523Y-70094285D01*
X34624523Y-70094285D02*
X34719761Y-70141904D01*
X34719761Y-70141904D02*
X34815000Y-70237142D01*
X34815000Y-70237142D02*
X34862619Y-70379999D01*
X34862619Y-70379999D02*
X34862619Y-70618094D01*
X34862619Y-69094285D02*
X34862619Y-69665713D01*
X34862619Y-69379999D02*
X33862619Y-69379999D01*
X33862619Y-69379999D02*
X34005476Y-69475237D01*
X34005476Y-69475237D02*
X34100714Y-69570475D01*
X34100714Y-69570475D02*
X34148333Y-69665713D01*
X39262619Y-65061904D02*
X38262619Y-65061904D01*
X39262619Y-64490476D02*
X38691190Y-64919047D01*
X38262619Y-64490476D02*
X38834047Y-65061904D01*
%TO.C,Q1*%
X36857857Y-35325238D02*
X36810238Y-35420476D01*
X36810238Y-35420476D02*
X36715000Y-35515714D01*
X36715000Y-35515714D02*
X36572142Y-35658571D01*
X36572142Y-35658571D02*
X36524523Y-35753809D01*
X36524523Y-35753809D02*
X36524523Y-35849047D01*
X36762619Y-35801428D02*
X36715000Y-35896666D01*
X36715000Y-35896666D02*
X36619761Y-35991904D01*
X36619761Y-35991904D02*
X36429285Y-36039523D01*
X36429285Y-36039523D02*
X36095952Y-36039523D01*
X36095952Y-36039523D02*
X35905476Y-35991904D01*
X35905476Y-35991904D02*
X35810238Y-35896666D01*
X35810238Y-35896666D02*
X35762619Y-35801428D01*
X35762619Y-35801428D02*
X35762619Y-35610952D01*
X35762619Y-35610952D02*
X35810238Y-35515714D01*
X35810238Y-35515714D02*
X35905476Y-35420476D01*
X35905476Y-35420476D02*
X36095952Y-35372857D01*
X36095952Y-35372857D02*
X36429285Y-35372857D01*
X36429285Y-35372857D02*
X36619761Y-35420476D01*
X36619761Y-35420476D02*
X36715000Y-35515714D01*
X36715000Y-35515714D02*
X36762619Y-35610952D01*
X36762619Y-35610952D02*
X36762619Y-35801428D01*
X36762619Y-34420476D02*
X36762619Y-34991904D01*
X36762619Y-34706190D02*
X35762619Y-34706190D01*
X35762619Y-34706190D02*
X35905476Y-34801428D01*
X35905476Y-34801428D02*
X36000714Y-34896666D01*
X36000714Y-34896666D02*
X36048333Y-34991904D01*
%TO.C,R1*%
X30162619Y-70146666D02*
X29686428Y-70479999D01*
X30162619Y-70718094D02*
X29162619Y-70718094D01*
X29162619Y-70718094D02*
X29162619Y-70337142D01*
X29162619Y-70337142D02*
X29210238Y-70241904D01*
X29210238Y-70241904D02*
X29257857Y-70194285D01*
X29257857Y-70194285D02*
X29353095Y-70146666D01*
X29353095Y-70146666D02*
X29495952Y-70146666D01*
X29495952Y-70146666D02*
X29591190Y-70194285D01*
X29591190Y-70194285D02*
X29638809Y-70241904D01*
X29638809Y-70241904D02*
X29686428Y-70337142D01*
X29686428Y-70337142D02*
X29686428Y-70718094D01*
X30162619Y-69194285D02*
X30162619Y-69765713D01*
X30162619Y-69479999D02*
X29162619Y-69479999D01*
X29162619Y-69479999D02*
X29305476Y-69575237D01*
X29305476Y-69575237D02*
X29400714Y-69670475D01*
X29400714Y-69670475D02*
X29448333Y-69765713D01*
%TO.C,R3*%
X44162619Y-45766666D02*
X43686428Y-46099999D01*
X44162619Y-46338094D02*
X43162619Y-46338094D01*
X43162619Y-46338094D02*
X43162619Y-45957142D01*
X43162619Y-45957142D02*
X43210238Y-45861904D01*
X43210238Y-45861904D02*
X43257857Y-45814285D01*
X43257857Y-45814285D02*
X43353095Y-45766666D01*
X43353095Y-45766666D02*
X43495952Y-45766666D01*
X43495952Y-45766666D02*
X43591190Y-45814285D01*
X43591190Y-45814285D02*
X43638809Y-45861904D01*
X43638809Y-45861904D02*
X43686428Y-45957142D01*
X43686428Y-45957142D02*
X43686428Y-46338094D01*
X43162619Y-45433332D02*
X43162619Y-44814285D01*
X43162619Y-44814285D02*
X43543571Y-45147618D01*
X43543571Y-45147618D02*
X43543571Y-45004761D01*
X43543571Y-45004761D02*
X43591190Y-44909523D01*
X43591190Y-44909523D02*
X43638809Y-44861904D01*
X43638809Y-44861904D02*
X43734047Y-44814285D01*
X43734047Y-44814285D02*
X43972142Y-44814285D01*
X43972142Y-44814285D02*
X44067380Y-44861904D01*
X44067380Y-44861904D02*
X44115000Y-44909523D01*
X44115000Y-44909523D02*
X44162619Y-45004761D01*
X44162619Y-45004761D02*
X44162619Y-45290475D01*
X44162619Y-45290475D02*
X44115000Y-45385713D01*
X44115000Y-45385713D02*
X44067380Y-45433332D01*
%TO.C,J2*%
X53266666Y-39992619D02*
X53266666Y-40706904D01*
X53266666Y-40706904D02*
X53219047Y-40849761D01*
X53219047Y-40849761D02*
X53123809Y-40945000D01*
X53123809Y-40945000D02*
X52980952Y-40992619D01*
X52980952Y-40992619D02*
X52885714Y-40992619D01*
X53695238Y-40087857D02*
X53742857Y-40040238D01*
X53742857Y-40040238D02*
X53838095Y-39992619D01*
X53838095Y-39992619D02*
X54076190Y-39992619D01*
X54076190Y-39992619D02*
X54171428Y-40040238D01*
X54171428Y-40040238D02*
X54219047Y-40087857D01*
X54219047Y-40087857D02*
X54266666Y-40183095D01*
X54266666Y-40183095D02*
X54266666Y-40278333D01*
X54266666Y-40278333D02*
X54219047Y-40421190D01*
X54219047Y-40421190D02*
X53647619Y-40992619D01*
X53647619Y-40992619D02*
X54266666Y-40992619D01*
%TO.C,U1*%
X54062619Y-70561904D02*
X54872142Y-70561904D01*
X54872142Y-70561904D02*
X54967380Y-70514285D01*
X54967380Y-70514285D02*
X55015000Y-70466666D01*
X55015000Y-70466666D02*
X55062619Y-70371428D01*
X55062619Y-70371428D02*
X55062619Y-70180952D01*
X55062619Y-70180952D02*
X55015000Y-70085714D01*
X55015000Y-70085714D02*
X54967380Y-70038095D01*
X54967380Y-70038095D02*
X54872142Y-69990476D01*
X54872142Y-69990476D02*
X54062619Y-69990476D01*
X55062619Y-68990476D02*
X55062619Y-69561904D01*
X55062619Y-69276190D02*
X54062619Y-69276190D01*
X54062619Y-69276190D02*
X54205476Y-69371428D01*
X54205476Y-69371428D02*
X54300714Y-69466666D01*
X54300714Y-69466666D02*
X54348333Y-69561904D01*
X41310238Y-80868095D02*
X41262619Y-80963333D01*
X41262619Y-80963333D02*
X41262619Y-81106190D01*
X41262619Y-81106190D02*
X41310238Y-81249047D01*
X41310238Y-81249047D02*
X41405476Y-81344285D01*
X41405476Y-81344285D02*
X41500714Y-81391904D01*
X41500714Y-81391904D02*
X41691190Y-81439523D01*
X41691190Y-81439523D02*
X41834047Y-81439523D01*
X41834047Y-81439523D02*
X42024523Y-81391904D01*
X42024523Y-81391904D02*
X42119761Y-81344285D01*
X42119761Y-81344285D02*
X42215000Y-81249047D01*
X42215000Y-81249047D02*
X42262619Y-81106190D01*
X42262619Y-81106190D02*
X42262619Y-81010952D01*
X42262619Y-81010952D02*
X42215000Y-80868095D01*
X42215000Y-80868095D02*
X42167380Y-80820476D01*
X42167380Y-80820476D02*
X41834047Y-80820476D01*
X41834047Y-80820476D02*
X41834047Y-81010952D01*
X48882619Y-59031904D02*
X48882619Y-58412857D01*
X48882619Y-58412857D02*
X49263571Y-58746190D01*
X49263571Y-58746190D02*
X49263571Y-58603333D01*
X49263571Y-58603333D02*
X49311190Y-58508095D01*
X49311190Y-58508095D02*
X49358809Y-58460476D01*
X49358809Y-58460476D02*
X49454047Y-58412857D01*
X49454047Y-58412857D02*
X49692142Y-58412857D01*
X49692142Y-58412857D02*
X49787380Y-58460476D01*
X49787380Y-58460476D02*
X49835000Y-58508095D01*
X49835000Y-58508095D02*
X49882619Y-58603333D01*
X49882619Y-58603333D02*
X49882619Y-58889047D01*
X49882619Y-58889047D02*
X49835000Y-58984285D01*
X49835000Y-58984285D02*
X49787380Y-59031904D01*
X48882619Y-58127142D02*
X49882619Y-57793809D01*
X49882619Y-57793809D02*
X48882619Y-57460476D01*
X54962619Y-81868094D02*
X53962619Y-81868094D01*
X53962619Y-81868094D02*
X53962619Y-81629999D01*
X53962619Y-81629999D02*
X54010238Y-81487142D01*
X54010238Y-81487142D02*
X54105476Y-81391904D01*
X54105476Y-81391904D02*
X54200714Y-81344285D01*
X54200714Y-81344285D02*
X54391190Y-81296666D01*
X54391190Y-81296666D02*
X54534047Y-81296666D01*
X54534047Y-81296666D02*
X54724523Y-81344285D01*
X54724523Y-81344285D02*
X54819761Y-81391904D01*
X54819761Y-81391904D02*
X54915000Y-81487142D01*
X54915000Y-81487142D02*
X54962619Y-81629999D01*
X54962619Y-81629999D02*
X54962619Y-81868094D01*
X53962619Y-80439523D02*
X53962619Y-80629999D01*
X53962619Y-80629999D02*
X54010238Y-80725237D01*
X54010238Y-80725237D02*
X54057857Y-80772856D01*
X54057857Y-80772856D02*
X54200714Y-80868094D01*
X54200714Y-80868094D02*
X54391190Y-80915713D01*
X54391190Y-80915713D02*
X54772142Y-80915713D01*
X54772142Y-80915713D02*
X54867380Y-80868094D01*
X54867380Y-80868094D02*
X54915000Y-80820475D01*
X54915000Y-80820475D02*
X54962619Y-80725237D01*
X54962619Y-80725237D02*
X54962619Y-80534761D01*
X54962619Y-80534761D02*
X54915000Y-80439523D01*
X54915000Y-80439523D02*
X54867380Y-80391904D01*
X54867380Y-80391904D02*
X54772142Y-80344285D01*
X54772142Y-80344285D02*
X54534047Y-80344285D01*
X54534047Y-80344285D02*
X54438809Y-80391904D01*
X54438809Y-80391904D02*
X54391190Y-80439523D01*
X54391190Y-80439523D02*
X54343571Y-80534761D01*
X54343571Y-80534761D02*
X54343571Y-80725237D01*
X54343571Y-80725237D02*
X54391190Y-80820475D01*
X54391190Y-80820475D02*
X54438809Y-80868094D01*
X54438809Y-80868094D02*
X54534047Y-80915713D01*
X75282619Y-81868094D02*
X74282619Y-81868094D01*
X74282619Y-81868094D02*
X74282619Y-81629999D01*
X74282619Y-81629999D02*
X74330238Y-81487142D01*
X74330238Y-81487142D02*
X74425476Y-81391904D01*
X74425476Y-81391904D02*
X74520714Y-81344285D01*
X74520714Y-81344285D02*
X74711190Y-81296666D01*
X74711190Y-81296666D02*
X74854047Y-81296666D01*
X74854047Y-81296666D02*
X75044523Y-81344285D01*
X75044523Y-81344285D02*
X75139761Y-81391904D01*
X75139761Y-81391904D02*
X75235000Y-81487142D01*
X75235000Y-81487142D02*
X75282619Y-81629999D01*
X75282619Y-81629999D02*
X75282619Y-81868094D01*
X74282619Y-80677618D02*
X74282619Y-80582380D01*
X74282619Y-80582380D02*
X74330238Y-80487142D01*
X74330238Y-80487142D02*
X74377857Y-80439523D01*
X74377857Y-80439523D02*
X74473095Y-80391904D01*
X74473095Y-80391904D02*
X74663571Y-80344285D01*
X74663571Y-80344285D02*
X74901666Y-80344285D01*
X74901666Y-80344285D02*
X75092142Y-80391904D01*
X75092142Y-80391904D02*
X75187380Y-80439523D01*
X75187380Y-80439523D02*
X75235000Y-80487142D01*
X75235000Y-80487142D02*
X75282619Y-80582380D01*
X75282619Y-80582380D02*
X75282619Y-80677618D01*
X75282619Y-80677618D02*
X75235000Y-80772856D01*
X75235000Y-80772856D02*
X75187380Y-80820475D01*
X75187380Y-80820475D02*
X75092142Y-80868094D01*
X75092142Y-80868094D02*
X74901666Y-80915713D01*
X74901666Y-80915713D02*
X74663571Y-80915713D01*
X74663571Y-80915713D02*
X74473095Y-80868094D01*
X74473095Y-80868094D02*
X74377857Y-80820475D01*
X74377857Y-80820475D02*
X74330238Y-80772856D01*
X74330238Y-80772856D02*
X74282619Y-80677618D01*
X70202619Y-81868094D02*
X69202619Y-81868094D01*
X69202619Y-81868094D02*
X69202619Y-81629999D01*
X69202619Y-81629999D02*
X69250238Y-81487142D01*
X69250238Y-81487142D02*
X69345476Y-81391904D01*
X69345476Y-81391904D02*
X69440714Y-81344285D01*
X69440714Y-81344285D02*
X69631190Y-81296666D01*
X69631190Y-81296666D02*
X69774047Y-81296666D01*
X69774047Y-81296666D02*
X69964523Y-81344285D01*
X69964523Y-81344285D02*
X70059761Y-81391904D01*
X70059761Y-81391904D02*
X70155000Y-81487142D01*
X70155000Y-81487142D02*
X70202619Y-81629999D01*
X70202619Y-81629999D02*
X70202619Y-81868094D01*
X69297857Y-80915713D02*
X69250238Y-80868094D01*
X69250238Y-80868094D02*
X69202619Y-80772856D01*
X69202619Y-80772856D02*
X69202619Y-80534761D01*
X69202619Y-80534761D02*
X69250238Y-80439523D01*
X69250238Y-80439523D02*
X69297857Y-80391904D01*
X69297857Y-80391904D02*
X69393095Y-80344285D01*
X69393095Y-80344285D02*
X69488333Y-80344285D01*
X69488333Y-80344285D02*
X69631190Y-80391904D01*
X69631190Y-80391904D02*
X70202619Y-80963332D01*
X70202619Y-80963332D02*
X70202619Y-80344285D01*
X54915000Y-59055713D02*
X54962619Y-58912856D01*
X54962619Y-58912856D02*
X54962619Y-58674761D01*
X54962619Y-58674761D02*
X54915000Y-58579523D01*
X54915000Y-58579523D02*
X54867380Y-58531904D01*
X54867380Y-58531904D02*
X54772142Y-58484285D01*
X54772142Y-58484285D02*
X54676904Y-58484285D01*
X54676904Y-58484285D02*
X54581666Y-58531904D01*
X54581666Y-58531904D02*
X54534047Y-58579523D01*
X54534047Y-58579523D02*
X54486428Y-58674761D01*
X54486428Y-58674761D02*
X54438809Y-58865237D01*
X54438809Y-58865237D02*
X54391190Y-58960475D01*
X54391190Y-58960475D02*
X54343571Y-59008094D01*
X54343571Y-59008094D02*
X54248333Y-59055713D01*
X54248333Y-59055713D02*
X54153095Y-59055713D01*
X54153095Y-59055713D02*
X54057857Y-59008094D01*
X54057857Y-59008094D02*
X54010238Y-58960475D01*
X54010238Y-58960475D02*
X53962619Y-58865237D01*
X53962619Y-58865237D02*
X53962619Y-58627142D01*
X53962619Y-58627142D02*
X54010238Y-58484285D01*
X54962619Y-58055713D02*
X53962619Y-58055713D01*
X54962619Y-57484285D02*
X54391190Y-57912856D01*
X53962619Y-57484285D02*
X54534047Y-58055713D01*
X69202619Y-59127142D02*
X70202619Y-58793809D01*
X70202619Y-58793809D02*
X69202619Y-58460476D01*
X69202619Y-58127142D02*
X70012142Y-58127142D01*
X70012142Y-58127142D02*
X70107380Y-58079523D01*
X70107380Y-58079523D02*
X70155000Y-58031904D01*
X70155000Y-58031904D02*
X70202619Y-57936666D01*
X70202619Y-57936666D02*
X70202619Y-57746190D01*
X70202619Y-57746190D02*
X70155000Y-57650952D01*
X70155000Y-57650952D02*
X70107380Y-57603333D01*
X70107380Y-57603333D02*
X70012142Y-57555714D01*
X70012142Y-57555714D02*
X69202619Y-57555714D01*
X41310238Y-58008095D02*
X41262619Y-58103333D01*
X41262619Y-58103333D02*
X41262619Y-58246190D01*
X41262619Y-58246190D02*
X41310238Y-58389047D01*
X41310238Y-58389047D02*
X41405476Y-58484285D01*
X41405476Y-58484285D02*
X41500714Y-58531904D01*
X41500714Y-58531904D02*
X41691190Y-58579523D01*
X41691190Y-58579523D02*
X41834047Y-58579523D01*
X41834047Y-58579523D02*
X42024523Y-58531904D01*
X42024523Y-58531904D02*
X42119761Y-58484285D01*
X42119761Y-58484285D02*
X42215000Y-58389047D01*
X42215000Y-58389047D02*
X42262619Y-58246190D01*
X42262619Y-58246190D02*
X42262619Y-58150952D01*
X42262619Y-58150952D02*
X42215000Y-58008095D01*
X42215000Y-58008095D02*
X42167380Y-57960476D01*
X42167380Y-57960476D02*
X41834047Y-57960476D01*
X41834047Y-57960476D02*
X41834047Y-58150952D01*
X62535000Y-59031904D02*
X62582619Y-58889047D01*
X62582619Y-58889047D02*
X62582619Y-58650952D01*
X62582619Y-58650952D02*
X62535000Y-58555714D01*
X62535000Y-58555714D02*
X62487380Y-58508095D01*
X62487380Y-58508095D02*
X62392142Y-58460476D01*
X62392142Y-58460476D02*
X62296904Y-58460476D01*
X62296904Y-58460476D02*
X62201666Y-58508095D01*
X62201666Y-58508095D02*
X62154047Y-58555714D01*
X62154047Y-58555714D02*
X62106428Y-58650952D01*
X62106428Y-58650952D02*
X62058809Y-58841428D01*
X62058809Y-58841428D02*
X62011190Y-58936666D01*
X62011190Y-58936666D02*
X61963571Y-58984285D01*
X61963571Y-58984285D02*
X61868333Y-59031904D01*
X61868333Y-59031904D02*
X61773095Y-59031904D01*
X61773095Y-59031904D02*
X61677857Y-58984285D01*
X61677857Y-58984285D02*
X61630238Y-58936666D01*
X61630238Y-58936666D02*
X61582619Y-58841428D01*
X61582619Y-58841428D02*
X61582619Y-58603333D01*
X61582619Y-58603333D02*
X61630238Y-58460476D01*
X62582619Y-57508095D02*
X62582619Y-58079523D01*
X62582619Y-57793809D02*
X61582619Y-57793809D01*
X61582619Y-57793809D02*
X61725476Y-57889047D01*
X61725476Y-57889047D02*
X61820714Y-57984285D01*
X61820714Y-57984285D02*
X61868333Y-58079523D01*
X46818809Y-59008094D02*
X46818809Y-58674761D01*
X47342619Y-58531904D02*
X47342619Y-59008094D01*
X47342619Y-59008094D02*
X46342619Y-59008094D01*
X46342619Y-59008094D02*
X46342619Y-58531904D01*
X47342619Y-58103332D02*
X46342619Y-58103332D01*
X46342619Y-58103332D02*
X47342619Y-57531904D01*
X47342619Y-57531904D02*
X46342619Y-57531904D01*
X67615000Y-59031904D02*
X67662619Y-58889047D01*
X67662619Y-58889047D02*
X67662619Y-58650952D01*
X67662619Y-58650952D02*
X67615000Y-58555714D01*
X67615000Y-58555714D02*
X67567380Y-58508095D01*
X67567380Y-58508095D02*
X67472142Y-58460476D01*
X67472142Y-58460476D02*
X67376904Y-58460476D01*
X67376904Y-58460476D02*
X67281666Y-58508095D01*
X67281666Y-58508095D02*
X67234047Y-58555714D01*
X67234047Y-58555714D02*
X67186428Y-58650952D01*
X67186428Y-58650952D02*
X67138809Y-58841428D01*
X67138809Y-58841428D02*
X67091190Y-58936666D01*
X67091190Y-58936666D02*
X67043571Y-58984285D01*
X67043571Y-58984285D02*
X66948333Y-59031904D01*
X66948333Y-59031904D02*
X66853095Y-59031904D01*
X66853095Y-59031904D02*
X66757857Y-58984285D01*
X66757857Y-58984285D02*
X66710238Y-58936666D01*
X66710238Y-58936666D02*
X66662619Y-58841428D01*
X66662619Y-58841428D02*
X66662619Y-58603333D01*
X66662619Y-58603333D02*
X66710238Y-58460476D01*
X66662619Y-58127142D02*
X66662619Y-57508095D01*
X66662619Y-57508095D02*
X67043571Y-57841428D01*
X67043571Y-57841428D02*
X67043571Y-57698571D01*
X67043571Y-57698571D02*
X67091190Y-57603333D01*
X67091190Y-57603333D02*
X67138809Y-57555714D01*
X67138809Y-57555714D02*
X67234047Y-57508095D01*
X67234047Y-57508095D02*
X67472142Y-57508095D01*
X67472142Y-57508095D02*
X67567380Y-57555714D01*
X67567380Y-57555714D02*
X67615000Y-57603333D01*
X67615000Y-57603333D02*
X67662619Y-57698571D01*
X67662619Y-57698571D02*
X67662619Y-57984285D01*
X67662619Y-57984285D02*
X67615000Y-58079523D01*
X67615000Y-58079523D02*
X67567380Y-58127142D01*
X67662619Y-81868094D02*
X66662619Y-81868094D01*
X66662619Y-81868094D02*
X66662619Y-81629999D01*
X66662619Y-81629999D02*
X66710238Y-81487142D01*
X66710238Y-81487142D02*
X66805476Y-81391904D01*
X66805476Y-81391904D02*
X66900714Y-81344285D01*
X66900714Y-81344285D02*
X67091190Y-81296666D01*
X67091190Y-81296666D02*
X67234047Y-81296666D01*
X67234047Y-81296666D02*
X67424523Y-81344285D01*
X67424523Y-81344285D02*
X67519761Y-81391904D01*
X67519761Y-81391904D02*
X67615000Y-81487142D01*
X67615000Y-81487142D02*
X67662619Y-81629999D01*
X67662619Y-81629999D02*
X67662619Y-81868094D01*
X66662619Y-80963332D02*
X66662619Y-80344285D01*
X66662619Y-80344285D02*
X67043571Y-80677618D01*
X67043571Y-80677618D02*
X67043571Y-80534761D01*
X67043571Y-80534761D02*
X67091190Y-80439523D01*
X67091190Y-80439523D02*
X67138809Y-80391904D01*
X67138809Y-80391904D02*
X67234047Y-80344285D01*
X67234047Y-80344285D02*
X67472142Y-80344285D01*
X67472142Y-80344285D02*
X67567380Y-80391904D01*
X67567380Y-80391904D02*
X67615000Y-80439523D01*
X67615000Y-80439523D02*
X67662619Y-80534761D01*
X67662619Y-80534761D02*
X67662619Y-80820475D01*
X67662619Y-80820475D02*
X67615000Y-80915713D01*
X67615000Y-80915713D02*
X67567380Y-80963332D01*
X49882619Y-81868094D02*
X48882619Y-81868094D01*
X48882619Y-81868094D02*
X48882619Y-81629999D01*
X48882619Y-81629999D02*
X48930238Y-81487142D01*
X48930238Y-81487142D02*
X49025476Y-81391904D01*
X49025476Y-81391904D02*
X49120714Y-81344285D01*
X49120714Y-81344285D02*
X49311190Y-81296666D01*
X49311190Y-81296666D02*
X49454047Y-81296666D01*
X49454047Y-81296666D02*
X49644523Y-81344285D01*
X49644523Y-81344285D02*
X49739761Y-81391904D01*
X49739761Y-81391904D02*
X49835000Y-81487142D01*
X49835000Y-81487142D02*
X49882619Y-81629999D01*
X49882619Y-81629999D02*
X49882619Y-81868094D01*
X49311190Y-80725237D02*
X49263571Y-80820475D01*
X49263571Y-80820475D02*
X49215952Y-80868094D01*
X49215952Y-80868094D02*
X49120714Y-80915713D01*
X49120714Y-80915713D02*
X49073095Y-80915713D01*
X49073095Y-80915713D02*
X48977857Y-80868094D01*
X48977857Y-80868094D02*
X48930238Y-80820475D01*
X48930238Y-80820475D02*
X48882619Y-80725237D01*
X48882619Y-80725237D02*
X48882619Y-80534761D01*
X48882619Y-80534761D02*
X48930238Y-80439523D01*
X48930238Y-80439523D02*
X48977857Y-80391904D01*
X48977857Y-80391904D02*
X49073095Y-80344285D01*
X49073095Y-80344285D02*
X49120714Y-80344285D01*
X49120714Y-80344285D02*
X49215952Y-80391904D01*
X49215952Y-80391904D02*
X49263571Y-80439523D01*
X49263571Y-80439523D02*
X49311190Y-80534761D01*
X49311190Y-80534761D02*
X49311190Y-80725237D01*
X49311190Y-80725237D02*
X49358809Y-80820475D01*
X49358809Y-80820475D02*
X49406428Y-80868094D01*
X49406428Y-80868094D02*
X49501666Y-80915713D01*
X49501666Y-80915713D02*
X49692142Y-80915713D01*
X49692142Y-80915713D02*
X49787380Y-80868094D01*
X49787380Y-80868094D02*
X49835000Y-80820475D01*
X49835000Y-80820475D02*
X49882619Y-80725237D01*
X49882619Y-80725237D02*
X49882619Y-80534761D01*
X49882619Y-80534761D02*
X49835000Y-80439523D01*
X49835000Y-80439523D02*
X49787380Y-80391904D01*
X49787380Y-80391904D02*
X49692142Y-80344285D01*
X49692142Y-80344285D02*
X49501666Y-80344285D01*
X49501666Y-80344285D02*
X49406428Y-80391904D01*
X49406428Y-80391904D02*
X49358809Y-80439523D01*
X49358809Y-80439523D02*
X49311190Y-80534761D01*
X43802619Y-81891904D02*
X43802619Y-81320476D01*
X44802619Y-81606190D02*
X43802619Y-81606190D01*
X43802619Y-81082380D02*
X44802619Y-80415714D01*
X43802619Y-80415714D02*
X44802619Y-81082380D01*
X71790238Y-58008095D02*
X71742619Y-58103333D01*
X71742619Y-58103333D02*
X71742619Y-58246190D01*
X71742619Y-58246190D02*
X71790238Y-58389047D01*
X71790238Y-58389047D02*
X71885476Y-58484285D01*
X71885476Y-58484285D02*
X71980714Y-58531904D01*
X71980714Y-58531904D02*
X72171190Y-58579523D01*
X72171190Y-58579523D02*
X72314047Y-58579523D01*
X72314047Y-58579523D02*
X72504523Y-58531904D01*
X72504523Y-58531904D02*
X72599761Y-58484285D01*
X72599761Y-58484285D02*
X72695000Y-58389047D01*
X72695000Y-58389047D02*
X72742619Y-58246190D01*
X72742619Y-58246190D02*
X72742619Y-58150952D01*
X72742619Y-58150952D02*
X72695000Y-58008095D01*
X72695000Y-58008095D02*
X72647380Y-57960476D01*
X72647380Y-57960476D02*
X72314047Y-57960476D01*
X72314047Y-57960476D02*
X72314047Y-58150952D01*
X61582619Y-81891904D02*
X61582619Y-81272857D01*
X61582619Y-81272857D02*
X61963571Y-81606190D01*
X61963571Y-81606190D02*
X61963571Y-81463333D01*
X61963571Y-81463333D02*
X62011190Y-81368095D01*
X62011190Y-81368095D02*
X62058809Y-81320476D01*
X62058809Y-81320476D02*
X62154047Y-81272857D01*
X62154047Y-81272857D02*
X62392142Y-81272857D01*
X62392142Y-81272857D02*
X62487380Y-81320476D01*
X62487380Y-81320476D02*
X62535000Y-81368095D01*
X62535000Y-81368095D02*
X62582619Y-81463333D01*
X62582619Y-81463333D02*
X62582619Y-81749047D01*
X62582619Y-81749047D02*
X62535000Y-81844285D01*
X62535000Y-81844285D02*
X62487380Y-81891904D01*
X61582619Y-80987142D02*
X62582619Y-80653809D01*
X62582619Y-80653809D02*
X61582619Y-80320476D01*
X65075000Y-59031904D02*
X65122619Y-58889047D01*
X65122619Y-58889047D02*
X65122619Y-58650952D01*
X65122619Y-58650952D02*
X65075000Y-58555714D01*
X65075000Y-58555714D02*
X65027380Y-58508095D01*
X65027380Y-58508095D02*
X64932142Y-58460476D01*
X64932142Y-58460476D02*
X64836904Y-58460476D01*
X64836904Y-58460476D02*
X64741666Y-58508095D01*
X64741666Y-58508095D02*
X64694047Y-58555714D01*
X64694047Y-58555714D02*
X64646428Y-58650952D01*
X64646428Y-58650952D02*
X64598809Y-58841428D01*
X64598809Y-58841428D02*
X64551190Y-58936666D01*
X64551190Y-58936666D02*
X64503571Y-58984285D01*
X64503571Y-58984285D02*
X64408333Y-59031904D01*
X64408333Y-59031904D02*
X64313095Y-59031904D01*
X64313095Y-59031904D02*
X64217857Y-58984285D01*
X64217857Y-58984285D02*
X64170238Y-58936666D01*
X64170238Y-58936666D02*
X64122619Y-58841428D01*
X64122619Y-58841428D02*
X64122619Y-58603333D01*
X64122619Y-58603333D02*
X64170238Y-58460476D01*
X64217857Y-58079523D02*
X64170238Y-58031904D01*
X64170238Y-58031904D02*
X64122619Y-57936666D01*
X64122619Y-57936666D02*
X64122619Y-57698571D01*
X64122619Y-57698571D02*
X64170238Y-57603333D01*
X64170238Y-57603333D02*
X64217857Y-57555714D01*
X64217857Y-57555714D02*
X64313095Y-57508095D01*
X64313095Y-57508095D02*
X64408333Y-57508095D01*
X64408333Y-57508095D02*
X64551190Y-57555714D01*
X64551190Y-57555714D02*
X65122619Y-58127142D01*
X65122619Y-58127142D02*
X65122619Y-57508095D01*
X51470238Y-58008095D02*
X51422619Y-58103333D01*
X51422619Y-58103333D02*
X51422619Y-58246190D01*
X51422619Y-58246190D02*
X51470238Y-58389047D01*
X51470238Y-58389047D02*
X51565476Y-58484285D01*
X51565476Y-58484285D02*
X51660714Y-58531904D01*
X51660714Y-58531904D02*
X51851190Y-58579523D01*
X51851190Y-58579523D02*
X51994047Y-58579523D01*
X51994047Y-58579523D02*
X52184523Y-58531904D01*
X52184523Y-58531904D02*
X52279761Y-58484285D01*
X52279761Y-58484285D02*
X52375000Y-58389047D01*
X52375000Y-58389047D02*
X52422619Y-58246190D01*
X52422619Y-58246190D02*
X52422619Y-58150952D01*
X52422619Y-58150952D02*
X52375000Y-58008095D01*
X52375000Y-58008095D02*
X52327380Y-57960476D01*
X52327380Y-57960476D02*
X51994047Y-57960476D01*
X51994047Y-57960476D02*
X51994047Y-58150952D01*
X44802619Y-58817619D02*
X44326428Y-59150952D01*
X44802619Y-59389047D02*
X43802619Y-59389047D01*
X43802619Y-59389047D02*
X43802619Y-59008095D01*
X43802619Y-59008095D02*
X43850238Y-58912857D01*
X43850238Y-58912857D02*
X43897857Y-58865238D01*
X43897857Y-58865238D02*
X43993095Y-58817619D01*
X43993095Y-58817619D02*
X44135952Y-58817619D01*
X44135952Y-58817619D02*
X44231190Y-58865238D01*
X44231190Y-58865238D02*
X44278809Y-58912857D01*
X44278809Y-58912857D02*
X44326428Y-59008095D01*
X44326428Y-59008095D02*
X44326428Y-59389047D01*
X44755000Y-58436666D02*
X44802619Y-58293809D01*
X44802619Y-58293809D02*
X44802619Y-58055714D01*
X44802619Y-58055714D02*
X44755000Y-57960476D01*
X44755000Y-57960476D02*
X44707380Y-57912857D01*
X44707380Y-57912857D02*
X44612142Y-57865238D01*
X44612142Y-57865238D02*
X44516904Y-57865238D01*
X44516904Y-57865238D02*
X44421666Y-57912857D01*
X44421666Y-57912857D02*
X44374047Y-57960476D01*
X44374047Y-57960476D02*
X44326428Y-58055714D01*
X44326428Y-58055714D02*
X44278809Y-58246190D01*
X44278809Y-58246190D02*
X44231190Y-58341428D01*
X44231190Y-58341428D02*
X44183571Y-58389047D01*
X44183571Y-58389047D02*
X44088333Y-58436666D01*
X44088333Y-58436666D02*
X43993095Y-58436666D01*
X43993095Y-58436666D02*
X43897857Y-58389047D01*
X43897857Y-58389047D02*
X43850238Y-58341428D01*
X43850238Y-58341428D02*
X43802619Y-58246190D01*
X43802619Y-58246190D02*
X43802619Y-58008095D01*
X43802619Y-58008095D02*
X43850238Y-57865238D01*
X43802619Y-57579523D02*
X43802619Y-57008095D01*
X44802619Y-57293809D02*
X43802619Y-57293809D01*
X38722619Y-81891904D02*
X38722619Y-81272857D01*
X38722619Y-81272857D02*
X39103571Y-81606190D01*
X39103571Y-81606190D02*
X39103571Y-81463333D01*
X39103571Y-81463333D02*
X39151190Y-81368095D01*
X39151190Y-81368095D02*
X39198809Y-81320476D01*
X39198809Y-81320476D02*
X39294047Y-81272857D01*
X39294047Y-81272857D02*
X39532142Y-81272857D01*
X39532142Y-81272857D02*
X39627380Y-81320476D01*
X39627380Y-81320476D02*
X39675000Y-81368095D01*
X39675000Y-81368095D02*
X39722619Y-81463333D01*
X39722619Y-81463333D02*
X39722619Y-81749047D01*
X39722619Y-81749047D02*
X39675000Y-81844285D01*
X39675000Y-81844285D02*
X39627380Y-81891904D01*
X38722619Y-80987142D02*
X39722619Y-80653809D01*
X39722619Y-80653809D02*
X38722619Y-80320476D01*
X74996904Y-58984285D02*
X74996904Y-58508095D01*
X75282619Y-59079523D02*
X74282619Y-58746190D01*
X74282619Y-58746190D02*
X75282619Y-58412857D01*
X74282619Y-57889047D02*
X74282619Y-57793809D01*
X74282619Y-57793809D02*
X74330238Y-57698571D01*
X74330238Y-57698571D02*
X74377857Y-57650952D01*
X74377857Y-57650952D02*
X74473095Y-57603333D01*
X74473095Y-57603333D02*
X74663571Y-57555714D01*
X74663571Y-57555714D02*
X74901666Y-57555714D01*
X74901666Y-57555714D02*
X75092142Y-57603333D01*
X75092142Y-57603333D02*
X75187380Y-57650952D01*
X75187380Y-57650952D02*
X75235000Y-57698571D01*
X75235000Y-57698571D02*
X75282619Y-57793809D01*
X75282619Y-57793809D02*
X75282619Y-57889047D01*
X75282619Y-57889047D02*
X75235000Y-57984285D01*
X75235000Y-57984285D02*
X75187380Y-58031904D01*
X75187380Y-58031904D02*
X75092142Y-58079523D01*
X75092142Y-58079523D02*
X74901666Y-58127142D01*
X74901666Y-58127142D02*
X74663571Y-58127142D01*
X74663571Y-58127142D02*
X74473095Y-58079523D01*
X74473095Y-58079523D02*
X74377857Y-58031904D01*
X74377857Y-58031904D02*
X74330238Y-57984285D01*
X74330238Y-57984285D02*
X74282619Y-57889047D01*
X72742619Y-81868094D02*
X71742619Y-81868094D01*
X71742619Y-81868094D02*
X71742619Y-81629999D01*
X71742619Y-81629999D02*
X71790238Y-81487142D01*
X71790238Y-81487142D02*
X71885476Y-81391904D01*
X71885476Y-81391904D02*
X71980714Y-81344285D01*
X71980714Y-81344285D02*
X72171190Y-81296666D01*
X72171190Y-81296666D02*
X72314047Y-81296666D01*
X72314047Y-81296666D02*
X72504523Y-81344285D01*
X72504523Y-81344285D02*
X72599761Y-81391904D01*
X72599761Y-81391904D02*
X72695000Y-81487142D01*
X72695000Y-81487142D02*
X72742619Y-81629999D01*
X72742619Y-81629999D02*
X72742619Y-81868094D01*
X72742619Y-80344285D02*
X72742619Y-80915713D01*
X72742619Y-80629999D02*
X71742619Y-80629999D01*
X71742619Y-80629999D02*
X71885476Y-80725237D01*
X71885476Y-80725237D02*
X71980714Y-80820475D01*
X71980714Y-80820475D02*
X72028333Y-80915713D01*
X47342619Y-81296666D02*
X46866428Y-81629999D01*
X47342619Y-81868094D02*
X46342619Y-81868094D01*
X46342619Y-81868094D02*
X46342619Y-81487142D01*
X46342619Y-81487142D02*
X46390238Y-81391904D01*
X46390238Y-81391904D02*
X46437857Y-81344285D01*
X46437857Y-81344285D02*
X46533095Y-81296666D01*
X46533095Y-81296666D02*
X46675952Y-81296666D01*
X46675952Y-81296666D02*
X46771190Y-81344285D01*
X46771190Y-81344285D02*
X46818809Y-81391904D01*
X46818809Y-81391904D02*
X46866428Y-81487142D01*
X46866428Y-81487142D02*
X46866428Y-81868094D01*
X46342619Y-80963332D02*
X47342619Y-80296666D01*
X46342619Y-80296666D02*
X47342619Y-80963332D01*
X59090238Y-80868095D02*
X59042619Y-80963333D01*
X59042619Y-80963333D02*
X59042619Y-81106190D01*
X59042619Y-81106190D02*
X59090238Y-81249047D01*
X59090238Y-81249047D02*
X59185476Y-81344285D01*
X59185476Y-81344285D02*
X59280714Y-81391904D01*
X59280714Y-81391904D02*
X59471190Y-81439523D01*
X59471190Y-81439523D02*
X59614047Y-81439523D01*
X59614047Y-81439523D02*
X59804523Y-81391904D01*
X59804523Y-81391904D02*
X59899761Y-81344285D01*
X59899761Y-81344285D02*
X59995000Y-81249047D01*
X59995000Y-81249047D02*
X60042619Y-81106190D01*
X60042619Y-81106190D02*
X60042619Y-81010952D01*
X60042619Y-81010952D02*
X59995000Y-80868095D01*
X59995000Y-80868095D02*
X59947380Y-80820476D01*
X59947380Y-80820476D02*
X59614047Y-80820476D01*
X59614047Y-80820476D02*
X59614047Y-81010952D01*
X65122619Y-81868094D02*
X64122619Y-81868094D01*
X64122619Y-81868094D02*
X64122619Y-81629999D01*
X64122619Y-81629999D02*
X64170238Y-81487142D01*
X64170238Y-81487142D02*
X64265476Y-81391904D01*
X64265476Y-81391904D02*
X64360714Y-81344285D01*
X64360714Y-81344285D02*
X64551190Y-81296666D01*
X64551190Y-81296666D02*
X64694047Y-81296666D01*
X64694047Y-81296666D02*
X64884523Y-81344285D01*
X64884523Y-81344285D02*
X64979761Y-81391904D01*
X64979761Y-81391904D02*
X65075000Y-81487142D01*
X65075000Y-81487142D02*
X65122619Y-81629999D01*
X65122619Y-81629999D02*
X65122619Y-81868094D01*
X64455952Y-80439523D02*
X65122619Y-80439523D01*
X64075000Y-80677618D02*
X64789285Y-80915713D01*
X64789285Y-80915713D02*
X64789285Y-80296666D01*
X59995000Y-59055713D02*
X60042619Y-58912856D01*
X60042619Y-58912856D02*
X60042619Y-58674761D01*
X60042619Y-58674761D02*
X59995000Y-58579523D01*
X59995000Y-58579523D02*
X59947380Y-58531904D01*
X59947380Y-58531904D02*
X59852142Y-58484285D01*
X59852142Y-58484285D02*
X59756904Y-58484285D01*
X59756904Y-58484285D02*
X59661666Y-58531904D01*
X59661666Y-58531904D02*
X59614047Y-58579523D01*
X59614047Y-58579523D02*
X59566428Y-58674761D01*
X59566428Y-58674761D02*
X59518809Y-58865237D01*
X59518809Y-58865237D02*
X59471190Y-58960475D01*
X59471190Y-58960475D02*
X59423571Y-59008094D01*
X59423571Y-59008094D02*
X59328333Y-59055713D01*
X59328333Y-59055713D02*
X59233095Y-59055713D01*
X59233095Y-59055713D02*
X59137857Y-59008094D01*
X59137857Y-59008094D02*
X59090238Y-58960475D01*
X59090238Y-58960475D02*
X59042619Y-58865237D01*
X59042619Y-58865237D02*
X59042619Y-58627142D01*
X59042619Y-58627142D02*
X59090238Y-58484285D01*
X59947380Y-57484285D02*
X59995000Y-57531904D01*
X59995000Y-57531904D02*
X60042619Y-57674761D01*
X60042619Y-57674761D02*
X60042619Y-57769999D01*
X60042619Y-57769999D02*
X59995000Y-57912856D01*
X59995000Y-57912856D02*
X59899761Y-58008094D01*
X59899761Y-58008094D02*
X59804523Y-58055713D01*
X59804523Y-58055713D02*
X59614047Y-58103332D01*
X59614047Y-58103332D02*
X59471190Y-58103332D01*
X59471190Y-58103332D02*
X59280714Y-58055713D01*
X59280714Y-58055713D02*
X59185476Y-58008094D01*
X59185476Y-58008094D02*
X59090238Y-57912856D01*
X59090238Y-57912856D02*
X59042619Y-57769999D01*
X59042619Y-57769999D02*
X59042619Y-57674761D01*
X59042619Y-57674761D02*
X59090238Y-57531904D01*
X59090238Y-57531904D02*
X59137857Y-57484285D01*
X52422619Y-81868094D02*
X51422619Y-81868094D01*
X51422619Y-81868094D02*
X51422619Y-81629999D01*
X51422619Y-81629999D02*
X51470238Y-81487142D01*
X51470238Y-81487142D02*
X51565476Y-81391904D01*
X51565476Y-81391904D02*
X51660714Y-81344285D01*
X51660714Y-81344285D02*
X51851190Y-81296666D01*
X51851190Y-81296666D02*
X51994047Y-81296666D01*
X51994047Y-81296666D02*
X52184523Y-81344285D01*
X52184523Y-81344285D02*
X52279761Y-81391904D01*
X52279761Y-81391904D02*
X52375000Y-81487142D01*
X52375000Y-81487142D02*
X52422619Y-81629999D01*
X52422619Y-81629999D02*
X52422619Y-81868094D01*
X51422619Y-80963332D02*
X51422619Y-80296666D01*
X51422619Y-80296666D02*
X52422619Y-80725237D01*
X57455000Y-59079523D02*
X57502619Y-58936666D01*
X57502619Y-58936666D02*
X57502619Y-58698571D01*
X57502619Y-58698571D02*
X57455000Y-58603333D01*
X57455000Y-58603333D02*
X57407380Y-58555714D01*
X57407380Y-58555714D02*
X57312142Y-58508095D01*
X57312142Y-58508095D02*
X57216904Y-58508095D01*
X57216904Y-58508095D02*
X57121666Y-58555714D01*
X57121666Y-58555714D02*
X57074047Y-58603333D01*
X57074047Y-58603333D02*
X57026428Y-58698571D01*
X57026428Y-58698571D02*
X56978809Y-58889047D01*
X56978809Y-58889047D02*
X56931190Y-58984285D01*
X56931190Y-58984285D02*
X56883571Y-59031904D01*
X56883571Y-59031904D02*
X56788333Y-59079523D01*
X56788333Y-59079523D02*
X56693095Y-59079523D01*
X56693095Y-59079523D02*
X56597857Y-59031904D01*
X56597857Y-59031904D02*
X56550238Y-58984285D01*
X56550238Y-58984285D02*
X56502619Y-58889047D01*
X56502619Y-58889047D02*
X56502619Y-58650952D01*
X56502619Y-58650952D02*
X56550238Y-58508095D01*
X56502619Y-57889047D02*
X56502619Y-57698571D01*
X56502619Y-57698571D02*
X56550238Y-57603333D01*
X56550238Y-57603333D02*
X56645476Y-57508095D01*
X56645476Y-57508095D02*
X56835952Y-57460476D01*
X56835952Y-57460476D02*
X57169285Y-57460476D01*
X57169285Y-57460476D02*
X57359761Y-57508095D01*
X57359761Y-57508095D02*
X57455000Y-57603333D01*
X57455000Y-57603333D02*
X57502619Y-57698571D01*
X57502619Y-57698571D02*
X57502619Y-57889047D01*
X57502619Y-57889047D02*
X57455000Y-57984285D01*
X57455000Y-57984285D02*
X57359761Y-58079523D01*
X57359761Y-58079523D02*
X57169285Y-58127142D01*
X57169285Y-58127142D02*
X56835952Y-58127142D01*
X56835952Y-58127142D02*
X56645476Y-58079523D01*
X56645476Y-58079523D02*
X56550238Y-57984285D01*
X56550238Y-57984285D02*
X56502619Y-57889047D01*
X38722619Y-59365237D02*
X39722619Y-59031904D01*
X39722619Y-59031904D02*
X38722619Y-58698571D01*
X39722619Y-58365237D02*
X38722619Y-58365237D01*
X39722619Y-57889047D02*
X38722619Y-57889047D01*
X38722619Y-57889047D02*
X39722619Y-57317619D01*
X39722619Y-57317619D02*
X38722619Y-57317619D01*
X57502619Y-81868094D02*
X56502619Y-81868094D01*
X56502619Y-81868094D02*
X56502619Y-81629999D01*
X56502619Y-81629999D02*
X56550238Y-81487142D01*
X56550238Y-81487142D02*
X56645476Y-81391904D01*
X56645476Y-81391904D02*
X56740714Y-81344285D01*
X56740714Y-81344285D02*
X56931190Y-81296666D01*
X56931190Y-81296666D02*
X57074047Y-81296666D01*
X57074047Y-81296666D02*
X57264523Y-81344285D01*
X57264523Y-81344285D02*
X57359761Y-81391904D01*
X57359761Y-81391904D02*
X57455000Y-81487142D01*
X57455000Y-81487142D02*
X57502619Y-81629999D01*
X57502619Y-81629999D02*
X57502619Y-81868094D01*
X56502619Y-80391904D02*
X56502619Y-80868094D01*
X56502619Y-80868094D02*
X56978809Y-80915713D01*
X56978809Y-80915713D02*
X56931190Y-80868094D01*
X56931190Y-80868094D02*
X56883571Y-80772856D01*
X56883571Y-80772856D02*
X56883571Y-80534761D01*
X56883571Y-80534761D02*
X56931190Y-80439523D01*
X56931190Y-80439523D02*
X56978809Y-80391904D01*
X56978809Y-80391904D02*
X57074047Y-80344285D01*
X57074047Y-80344285D02*
X57312142Y-80344285D01*
X57312142Y-80344285D02*
X57407380Y-80391904D01*
X57407380Y-80391904D02*
X57455000Y-80439523D01*
X57455000Y-80439523D02*
X57502619Y-80534761D01*
X57502619Y-80534761D02*
X57502619Y-80772856D01*
X57502619Y-80772856D02*
X57455000Y-80868094D01*
X57455000Y-80868094D02*
X57407380Y-80915713D01*
%TO.C,J1*%
X70386466Y-42208019D02*
X70386466Y-42922304D01*
X70386466Y-42922304D02*
X70338847Y-43065161D01*
X70338847Y-43065161D02*
X70243609Y-43160400D01*
X70243609Y-43160400D02*
X70100752Y-43208019D01*
X70100752Y-43208019D02*
X70005514Y-43208019D01*
X71386466Y-43208019D02*
X70815038Y-43208019D01*
X71100752Y-43208019D02*
X71100752Y-42208019D01*
X71100752Y-42208019D02*
X71005514Y-42350876D01*
X71005514Y-42350876D02*
X70910276Y-42446114D01*
X70910276Y-42446114D02*
X70815038Y-42493733D01*
%TO.C,C1*%
X62533333Y-51767380D02*
X62485714Y-51815000D01*
X62485714Y-51815000D02*
X62342857Y-51862619D01*
X62342857Y-51862619D02*
X62247619Y-51862619D01*
X62247619Y-51862619D02*
X62104762Y-51815000D01*
X62104762Y-51815000D02*
X62009524Y-51719761D01*
X62009524Y-51719761D02*
X61961905Y-51624523D01*
X61961905Y-51624523D02*
X61914286Y-51434047D01*
X61914286Y-51434047D02*
X61914286Y-51291190D01*
X61914286Y-51291190D02*
X61961905Y-51100714D01*
X61961905Y-51100714D02*
X62009524Y-51005476D01*
X62009524Y-51005476D02*
X62104762Y-50910238D01*
X62104762Y-50910238D02*
X62247619Y-50862619D01*
X62247619Y-50862619D02*
X62342857Y-50862619D01*
X62342857Y-50862619D02*
X62485714Y-50910238D01*
X62485714Y-50910238D02*
X62533333Y-50957857D01*
X63485714Y-51862619D02*
X62914286Y-51862619D01*
X63200000Y-51862619D02*
X63200000Y-50862619D01*
X63200000Y-50862619D02*
X63104762Y-51005476D01*
X63104762Y-51005476D02*
X63009524Y-51100714D01*
X63009524Y-51100714D02*
X62914286Y-51148333D01*
%TO.C,R2*%
X38062619Y-45766666D02*
X37586428Y-46099999D01*
X38062619Y-46338094D02*
X37062619Y-46338094D01*
X37062619Y-46338094D02*
X37062619Y-45957142D01*
X37062619Y-45957142D02*
X37110238Y-45861904D01*
X37110238Y-45861904D02*
X37157857Y-45814285D01*
X37157857Y-45814285D02*
X37253095Y-45766666D01*
X37253095Y-45766666D02*
X37395952Y-45766666D01*
X37395952Y-45766666D02*
X37491190Y-45814285D01*
X37491190Y-45814285D02*
X37538809Y-45861904D01*
X37538809Y-45861904D02*
X37586428Y-45957142D01*
X37586428Y-45957142D02*
X37586428Y-46338094D01*
X37157857Y-45385713D02*
X37110238Y-45338094D01*
X37110238Y-45338094D02*
X37062619Y-45242856D01*
X37062619Y-45242856D02*
X37062619Y-45004761D01*
X37062619Y-45004761D02*
X37110238Y-44909523D01*
X37110238Y-44909523D02*
X37157857Y-44861904D01*
X37157857Y-44861904D02*
X37253095Y-44814285D01*
X37253095Y-44814285D02*
X37348333Y-44814285D01*
X37348333Y-44814285D02*
X37491190Y-44861904D01*
X37491190Y-44861904D02*
X38062619Y-45433332D01*
X38062619Y-45433332D02*
X38062619Y-44814285D01*
D12*
%TO.C,Q3*%
X57540000Y-33230000D02*
X57540000Y-37871000D01*
X57540000Y-33230000D02*
X67780000Y-33230000D01*
X57540000Y-34740000D02*
X67780000Y-34740000D01*
X57540000Y-37871000D02*
X67780000Y-37871000D01*
X60810000Y-33230000D02*
X60810000Y-34740000D01*
X64511000Y-33230000D02*
X64511000Y-34740000D01*
X67780000Y-33230000D02*
X67780000Y-37871000D01*
%TO.C,Q2*%
X47650000Y-37030000D02*
X47650000Y-33430000D01*
X43200000Y-35230000D02*
G75*
G03*
X47638478Y-37068478I2600000J0D01*
G01*
X47638478Y-33391522D02*
G75*
G03*
X43200000Y-35230000I-1838478J-1838478D01*
G01*
%TO.C,D1*%
X36700000Y-66140000D02*
X36700000Y-67160000D01*
X38170000Y-67160000D02*
X35230000Y-67160000D01*
X35230000Y-67160000D02*
X35230000Y-72600000D01*
X38170000Y-67940000D02*
X35230000Y-67940000D01*
X38170000Y-68060000D02*
X35230000Y-68060000D01*
X38170000Y-68180000D02*
X35230000Y-68180000D01*
X38170000Y-72600000D02*
X38170000Y-67160000D01*
X35230000Y-72600000D02*
X38170000Y-72600000D01*
X36700000Y-73620000D02*
X36700000Y-72600000D01*
%TO.C,Q1*%
X41590000Y-37030000D02*
X41590000Y-33430000D01*
X37140000Y-35230000D02*
G75*
G03*
X41578478Y-37068478I2600000J0D01*
G01*
X41578478Y-33391522D02*
G75*
G03*
X37140000Y-35230000I-1838478J-1838478D01*
G01*
%TO.C,R1*%
X32000000Y-74020000D02*
X32000000Y-73250000D01*
X30630000Y-73250000D02*
X33370000Y-73250000D01*
X33370000Y-73250000D02*
X33370000Y-66710000D01*
X30630000Y-66710000D02*
X30630000Y-73250000D01*
X33370000Y-66710000D02*
X30630000Y-66710000D01*
X32000000Y-65940000D02*
X32000000Y-66710000D01*
%TO.C,R3*%
X45800000Y-41560000D02*
X45800000Y-42330000D01*
X47170000Y-42330000D02*
X44430000Y-42330000D01*
X44430000Y-42330000D02*
X44430000Y-48870000D01*
X47170000Y-48870000D02*
X47170000Y-42330000D01*
X44430000Y-48870000D02*
X47170000Y-48870000D01*
X45800000Y-49640000D02*
X45800000Y-48870000D01*
%TO.C,J2*%
X52270000Y-41530000D02*
X53600000Y-41530000D01*
X52270000Y-42860000D02*
X52270000Y-41530000D01*
X52270000Y-44130000D02*
X52270000Y-49270000D01*
X52270000Y-44130000D02*
X54930000Y-44130000D01*
X52270000Y-49270000D02*
X54930000Y-49270000D01*
X54930000Y-44130000D02*
X54930000Y-49270000D01*
D11*
%TO.C,U1*%
X85000000Y-54450000D02*
X28000000Y-54450000D01*
X28000000Y-54450000D02*
X28000000Y-84950000D01*
X85000000Y-54950000D02*
X85000000Y-54450000D01*
X85000000Y-84950000D02*
X85000000Y-54950000D01*
X28000000Y-84950000D02*
X85000000Y-84950000D01*
X84236051Y-57000000D02*
G75*
G03*
X84236051Y-57000000I-1796051J0D01*
G01*
X32166051Y-57000000D02*
G75*
G03*
X32166051Y-57000000I-1796051J0D01*
G01*
X84236051Y-82400000D02*
G75*
G03*
X84236051Y-82400000I-1796051J0D01*
G01*
X32166051Y-82400000D02*
G75*
G03*
X32166051Y-82400000I-1796051J0D01*
G01*
D13*
%TO.C,J1*%
X73000000Y-52300000D02*
X73000000Y-44000000D01*
X81500000Y-52300000D02*
X81500000Y-43300000D01*
X85000000Y-52300000D02*
X73000000Y-52300000D01*
X85000000Y-52300000D02*
X85000000Y-43300000D01*
X70800000Y-51700000D02*
X70800000Y-50231000D01*
X71700000Y-51700000D02*
X71700000Y-50191000D01*
X81500000Y-51700000D02*
X70800000Y-51700000D01*
X71700000Y-45409000D02*
X71700000Y-43900000D01*
X70800000Y-45369000D02*
X70800000Y-43900000D01*
X72520000Y-43900000D02*
X70800000Y-43900000D01*
X81500000Y-43900000D02*
X76080000Y-43900000D01*
X85000000Y-43300000D02*
X76691000Y-43300000D01*
D12*
%TO.C,C1*%
X59825000Y-50747323D02*
X59825000Y-49747323D01*
X59325000Y-50247323D02*
X60325000Y-50247323D01*
X57620000Y-45267677D02*
X67780000Y-45267677D01*
X57620000Y-45227677D02*
X67780000Y-45227677D01*
X57620000Y-45187677D02*
X67780000Y-45187677D01*
X57621000Y-45147677D02*
X67779000Y-45147677D01*
X57622000Y-45107677D02*
X67778000Y-45107677D01*
X57623000Y-45067677D02*
X67777000Y-45067677D01*
X57625000Y-45027677D02*
X67775000Y-45027677D01*
X57627000Y-44987677D02*
X67773000Y-44987677D01*
X57630000Y-44947677D02*
X67770000Y-44947677D01*
X57632000Y-44907677D02*
X67768000Y-44907677D01*
X57635000Y-44867677D02*
X67765000Y-44867677D01*
X57638000Y-44827677D02*
X67762000Y-44827677D01*
X57642000Y-44787677D02*
X67758000Y-44787677D01*
X57646000Y-44747677D02*
X67754000Y-44747677D01*
X57650000Y-44707677D02*
X67750000Y-44707677D01*
X57655000Y-44667677D02*
X67745000Y-44667677D01*
X57660000Y-44627677D02*
X67740000Y-44627677D01*
X57665000Y-44587677D02*
X67735000Y-44587677D01*
X57670000Y-44546677D02*
X67730000Y-44546677D01*
X57676000Y-44506677D02*
X67724000Y-44506677D01*
X57682000Y-44466677D02*
X67718000Y-44466677D01*
X57689000Y-44426677D02*
X67711000Y-44426677D01*
X57696000Y-44386677D02*
X67704000Y-44386677D01*
X57703000Y-44346677D02*
X67697000Y-44346677D01*
X57710000Y-44306677D02*
X67690000Y-44306677D01*
X57718000Y-44266677D02*
X67682000Y-44266677D01*
X57726000Y-44226677D02*
X67674000Y-44226677D01*
X57735000Y-44186677D02*
X67665000Y-44186677D01*
X57744000Y-44146677D02*
X67656000Y-44146677D01*
X57753000Y-44106677D02*
X67647000Y-44106677D01*
X57762000Y-44066677D02*
X67638000Y-44066677D01*
X57772000Y-44026677D02*
X67628000Y-44026677D01*
X57782000Y-43986677D02*
X61459000Y-43986677D01*
X63941000Y-43986677D02*
X67618000Y-43986677D01*
X57793000Y-43946677D02*
X61459000Y-43946677D01*
X63941000Y-43946677D02*
X67607000Y-43946677D01*
X57803000Y-43906677D02*
X61459000Y-43906677D01*
X63941000Y-43906677D02*
X67597000Y-43906677D01*
X57815000Y-43866677D02*
X61459000Y-43866677D01*
X63941000Y-43866677D02*
X67585000Y-43866677D01*
X57826000Y-43826677D02*
X61459000Y-43826677D01*
X63941000Y-43826677D02*
X67574000Y-43826677D01*
X57838000Y-43786677D02*
X61459000Y-43786677D01*
X63941000Y-43786677D02*
X67562000Y-43786677D01*
X57850000Y-43746677D02*
X61459000Y-43746677D01*
X63941000Y-43746677D02*
X67550000Y-43746677D01*
X57863000Y-43706677D02*
X61459000Y-43706677D01*
X63941000Y-43706677D02*
X67537000Y-43706677D01*
X57876000Y-43666677D02*
X61459000Y-43666677D01*
X63941000Y-43666677D02*
X67524000Y-43666677D01*
X57889000Y-43626677D02*
X61459000Y-43626677D01*
X63941000Y-43626677D02*
X67511000Y-43626677D01*
X57903000Y-43586677D02*
X61459000Y-43586677D01*
X63941000Y-43586677D02*
X67497000Y-43586677D01*
X57917000Y-43546677D02*
X61459000Y-43546677D01*
X63941000Y-43546677D02*
X67483000Y-43546677D01*
X57932000Y-43506677D02*
X61459000Y-43506677D01*
X63941000Y-43506677D02*
X67468000Y-43506677D01*
X57946000Y-43466677D02*
X61459000Y-43466677D01*
X63941000Y-43466677D02*
X67454000Y-43466677D01*
X57962000Y-43426677D02*
X61459000Y-43426677D01*
X63941000Y-43426677D02*
X67438000Y-43426677D01*
X57977000Y-43386677D02*
X61459000Y-43386677D01*
X63941000Y-43386677D02*
X67423000Y-43386677D01*
X57993000Y-43346677D02*
X61459000Y-43346677D01*
X63941000Y-43346677D02*
X67407000Y-43346677D01*
X58010000Y-43306677D02*
X61459000Y-43306677D01*
X63941000Y-43306677D02*
X67390000Y-43306677D01*
X58026000Y-43266677D02*
X61459000Y-43266677D01*
X63941000Y-43266677D02*
X67374000Y-43266677D01*
X58043000Y-43226677D02*
X61459000Y-43226677D01*
X63941000Y-43226677D02*
X67357000Y-43226677D01*
X58061000Y-43186677D02*
X61459000Y-43186677D01*
X63941000Y-43186677D02*
X67339000Y-43186677D01*
X58079000Y-43146677D02*
X61459000Y-43146677D01*
X63941000Y-43146677D02*
X67321000Y-43146677D01*
X58097000Y-43106677D02*
X61459000Y-43106677D01*
X63941000Y-43106677D02*
X67303000Y-43106677D01*
X58116000Y-43066677D02*
X61459000Y-43066677D01*
X63941000Y-43066677D02*
X67284000Y-43066677D01*
X58136000Y-43026677D02*
X61459000Y-43026677D01*
X63941000Y-43026677D02*
X67264000Y-43026677D01*
X58155000Y-42986677D02*
X61459000Y-42986677D01*
X63941000Y-42986677D02*
X67245000Y-42986677D01*
X58175000Y-42946677D02*
X61459000Y-42946677D01*
X63941000Y-42946677D02*
X67225000Y-42946677D01*
X58196000Y-42906677D02*
X61459000Y-42906677D01*
X63941000Y-42906677D02*
X67204000Y-42906677D01*
X58217000Y-42866677D02*
X61459000Y-42866677D01*
X63941000Y-42866677D02*
X67183000Y-42866677D01*
X58238000Y-42826677D02*
X61459000Y-42826677D01*
X63941000Y-42826677D02*
X67162000Y-42826677D01*
X58260000Y-42786677D02*
X61459000Y-42786677D01*
X63941000Y-42786677D02*
X67140000Y-42786677D01*
X58283000Y-42746677D02*
X61459000Y-42746677D01*
X63941000Y-42746677D02*
X67117000Y-42746677D01*
X58305000Y-42706677D02*
X61459000Y-42706677D01*
X63941000Y-42706677D02*
X67095000Y-42706677D01*
X58329000Y-42666677D02*
X61459000Y-42666677D01*
X63941000Y-42666677D02*
X67071000Y-42666677D01*
X58353000Y-42626677D02*
X61459000Y-42626677D01*
X63941000Y-42626677D02*
X67047000Y-42626677D01*
X58377000Y-42586677D02*
X61459000Y-42586677D01*
X63941000Y-42586677D02*
X67023000Y-42586677D01*
X58402000Y-42546677D02*
X61459000Y-42546677D01*
X63941000Y-42546677D02*
X66998000Y-42546677D01*
X58427000Y-42506677D02*
X61459000Y-42506677D01*
X63941000Y-42506677D02*
X66973000Y-42506677D01*
X58453000Y-42466677D02*
X61459000Y-42466677D01*
X63941000Y-42466677D02*
X66947000Y-42466677D01*
X58479000Y-42426677D02*
X61459000Y-42426677D01*
X63941000Y-42426677D02*
X66921000Y-42426677D01*
X58506000Y-42386677D02*
X61459000Y-42386677D01*
X63941000Y-42386677D02*
X66894000Y-42386677D01*
X58534000Y-42346677D02*
X61459000Y-42346677D01*
X63941000Y-42346677D02*
X66866000Y-42346677D01*
X58562000Y-42306677D02*
X61459000Y-42306677D01*
X63941000Y-42306677D02*
X66838000Y-42306677D01*
X58590000Y-42266677D02*
X61459000Y-42266677D01*
X63941000Y-42266677D02*
X66810000Y-42266677D01*
X58620000Y-42226677D02*
X61459000Y-42226677D01*
X63941000Y-42226677D02*
X66780000Y-42226677D01*
X58650000Y-42186677D02*
X61459000Y-42186677D01*
X63941000Y-42186677D02*
X66750000Y-42186677D01*
X58680000Y-42146677D02*
X61459000Y-42146677D01*
X63941000Y-42146677D02*
X66720000Y-42146677D01*
X58711000Y-42106677D02*
X61459000Y-42106677D01*
X63941000Y-42106677D02*
X66689000Y-42106677D01*
X58743000Y-42066677D02*
X61459000Y-42066677D01*
X63941000Y-42066677D02*
X66657000Y-42066677D01*
X58775000Y-42026677D02*
X61459000Y-42026677D01*
X63941000Y-42026677D02*
X66625000Y-42026677D01*
X58808000Y-41986677D02*
X61459000Y-41986677D01*
X63941000Y-41986677D02*
X66592000Y-41986677D01*
X58842000Y-41946677D02*
X61459000Y-41946677D01*
X63941000Y-41946677D02*
X66558000Y-41946677D01*
X58876000Y-41906677D02*
X61459000Y-41906677D01*
X63941000Y-41906677D02*
X66524000Y-41906677D01*
X58911000Y-41866677D02*
X61459000Y-41866677D01*
X63941000Y-41866677D02*
X66489000Y-41866677D01*
X58947000Y-41826677D02*
X61459000Y-41826677D01*
X63941000Y-41826677D02*
X66453000Y-41826677D01*
X58984000Y-41786677D02*
X61459000Y-41786677D01*
X63941000Y-41786677D02*
X66416000Y-41786677D01*
X59021000Y-41746677D02*
X61459000Y-41746677D01*
X63941000Y-41746677D02*
X66379000Y-41746677D01*
X59060000Y-41706677D02*
X61459000Y-41706677D01*
X63941000Y-41706677D02*
X66340000Y-41706677D01*
X59099000Y-41666677D02*
X61459000Y-41666677D01*
X63941000Y-41666677D02*
X66301000Y-41666677D01*
X59139000Y-41626677D02*
X61459000Y-41626677D01*
X63941000Y-41626677D02*
X66261000Y-41626677D01*
X59180000Y-41586677D02*
X61459000Y-41586677D01*
X63941000Y-41586677D02*
X66220000Y-41586677D01*
X59222000Y-41546677D02*
X61459000Y-41546677D01*
X63941000Y-41546677D02*
X66178000Y-41546677D01*
X59264000Y-41506677D02*
X66136000Y-41506677D01*
X59308000Y-41466677D02*
X66092000Y-41466677D01*
X59353000Y-41426677D02*
X66047000Y-41426677D01*
X59399000Y-41386677D02*
X66001000Y-41386677D01*
X59446000Y-41346677D02*
X65954000Y-41346677D01*
X59494000Y-41306677D02*
X65906000Y-41306677D01*
X59544000Y-41266677D02*
X65856000Y-41266677D01*
X59594000Y-41226677D02*
X65806000Y-41226677D01*
X59646000Y-41186677D02*
X65754000Y-41186677D01*
X59700000Y-41146677D02*
X65700000Y-41146677D01*
X59755000Y-41106677D02*
X65645000Y-41106677D01*
X59811000Y-41066677D02*
X65589000Y-41066677D01*
X59870000Y-41026677D02*
X65530000Y-41026677D01*
X59930000Y-40986677D02*
X65470000Y-40986677D01*
X59991000Y-40946677D02*
X65409000Y-40946677D01*
X60055000Y-40906677D02*
X65345000Y-40906677D01*
X60121000Y-40866677D02*
X65279000Y-40866677D01*
X60190000Y-40826677D02*
X65210000Y-40826677D01*
X60261000Y-40786677D02*
X65139000Y-40786677D01*
X60335000Y-40746677D02*
X65065000Y-40746677D01*
X60411000Y-40706677D02*
X64989000Y-40706677D01*
X60491000Y-40666677D02*
X64909000Y-40666677D01*
X60575000Y-40626677D02*
X64825000Y-40626677D01*
X60663000Y-40586677D02*
X64737000Y-40586677D01*
X60756000Y-40546677D02*
X64644000Y-40546677D01*
X60854000Y-40506677D02*
X64546000Y-40506677D01*
X60958000Y-40466677D02*
X64442000Y-40466677D01*
X61070000Y-40426677D02*
X64330000Y-40426677D01*
X61190000Y-40386677D02*
X64210000Y-40386677D01*
X61322000Y-40346677D02*
X64078000Y-40346677D01*
X61470000Y-40306677D02*
X63930000Y-40306677D01*
X61638000Y-40266677D02*
X63762000Y-40266677D01*
X61838000Y-40226677D02*
X63562000Y-40226677D01*
X62101000Y-40186677D02*
X63299000Y-40186677D01*
X67820000Y-45267677D02*
G75*
G03*
X67820000Y-45267677I-5120000J0D01*
G01*
%TO.C,R2*%
X39750000Y-41540000D02*
X39750000Y-42310000D01*
X41120000Y-42310000D02*
X38380000Y-42310000D01*
X38380000Y-42310000D02*
X38380000Y-48850000D01*
X41120000Y-48850000D02*
X41120000Y-42310000D01*
X38380000Y-48850000D02*
X41120000Y-48850000D01*
X39750000Y-49620000D02*
X39750000Y-48850000D01*
%TD*%
D14*
%TO.C,U1*%
X74820000Y-55730000D03*
X72280000Y-55730000D03*
X69740000Y-55730000D03*
X67200000Y-55730000D03*
X64660000Y-55730000D03*
X62120000Y-55730000D03*
X59580000Y-55730000D03*
X57040000Y-55730000D03*
X54500000Y-55730000D03*
X51960000Y-55730000D03*
X49420000Y-55730000D03*
X46880000Y-55730000D03*
X44340000Y-55730000D03*
X41800000Y-55730000D03*
X39260000Y-55730000D03*
X39260000Y-83670000D03*
X41800000Y-83670000D03*
X44340000Y-83670000D03*
X46880000Y-83670000D03*
X49420000Y-83670000D03*
X51960000Y-83670000D03*
X54500000Y-83670000D03*
X57040000Y-83670000D03*
X59580000Y-83670000D03*
X62120000Y-83670000D03*
X64660000Y-83670000D03*
X67200000Y-83670000D03*
X69740000Y-83670000D03*
X72280000Y-83670000D03*
X74820000Y-83670000D03*
%TD*%
M02*
