M48
INCH,TZ
T1C0.0295
T2C0.0300
T3C0.0315
T4C0.0394
T5C0.0433
%
G90
G05
T1
X15646Y-13370
X15646Y-13870
X15646Y-14370
X18031Y-13370
X18031Y-13870
X18031Y-14370
T2
X15457Y-21941
X15457Y-32941
X16457Y-21941
X16457Y-32941
X17457Y-21941
X17457Y-32941
X18457Y-21941
X18457Y-32941
X19457Y-21941
X19457Y-32941
X20457Y-21941
X20457Y-32941
X21457Y-21941
X21457Y-32941
X22457Y-21941
X22457Y-32941
X23457Y-21941
X23457Y-32941
X24457Y-21941
X24457Y-32941
X25457Y-21941
X25457Y-32941
X26457Y-21941
X26457Y-32941
X27457Y-21941
X27457Y-32941
X28457Y-21941
X28457Y-32941
X29457Y-21941
X29457Y-32941
T3
X12598Y-25551
X12598Y-29551
X15650Y-15945
X15650Y-19945
X18031Y-15953
X18031Y-19953
T4
X21102Y-16874
X21102Y-17874
X21102Y-18874
X24685Y-16838
X24685Y-18806
T5
X14449Y-25512
X14449Y-29512
X23669Y-14370
X24669Y-14370
X25669Y-14370
T4
G00X28031Y-19331
M15
G01X28031Y-18307
M16
G05
G00X29764Y-16850
M15
G01X28740Y-16850
M16
G05
G00X30472Y-18307
M15
G01X30472Y-19331
M16
G05
T0
M30
